<svg width="85" height="19" viewBox="0 0 85 19" fill="none" xmlns="http://www.w3.org/2000/svg">
<path d="M8.82943 2.78129C9.13703 1.87759 10.4151 1.8776 10.7228 2.78129L11.7063 5.67075C11.8442 6.07602 12.2248 6.34853 12.6529 6.34853H15.7331C16.7131 6.34853 17.1083 7.61178 16.303 8.17025L13.8923 9.84218C13.5254 10.0966 13.3717 10.5634 13.5155 10.9861L14.455 13.7462C14.7658 14.6594 13.7311 15.4399 12.9385 14.8901L10.346 13.0922C10.0032 12.8544 9.54894 12.8544 9.2062 13.0922L6.61372 14.8901C5.82105 15.4399 4.78633 14.6594 5.09716 13.7462L6.03665 10.9861C6.18052 10.5634 6.02676 10.0966 5.65988 9.84218L3.24914 8.17025C2.4439 7.61178 2.83909 6.34853 3.81903 6.34853H6.89924C7.32734 6.34853 7.70796 6.07602 7.84591 5.67075L8.82943 2.78129Z" fill="#FFA858"/>
<path d="M25.0121 2.92707C25.3114 2.00575 26.6148 2.00575 26.9142 2.92707L27.8013 5.65735C27.9351 6.06937 28.3191 6.34834 28.7523 6.34834H31.6231C32.5918 6.34834 32.9946 7.58794 32.2109 8.15735L29.8883 9.84482C29.5379 10.0994 29.3912 10.5508 29.5251 10.9628L30.4122 13.6932C30.7115 14.6145 29.657 15.3806 28.8733 14.8112L26.5509 13.1238C26.2004 12.8691 25.7258 12.8691 25.3753 13.1238L23.0529 14.8112C22.2692 15.3806 21.2147 14.6145 21.514 13.6932L22.4012 10.9628C22.535 10.5508 22.3884 10.0994 22.0379 9.84482L19.7153 8.15734C18.9316 7.58794 19.3344 6.34834 20.3031 6.34834H23.1739C23.6071 6.34834 23.9911 6.06937 24.125 5.65735L25.0121 2.92707Z" fill="#FFA858"/>
<path d="M41.2035 2.78129C41.5111 1.87759 42.7892 1.8776 43.0968 2.78129L44.0803 5.67075C44.2182 6.07602 44.5989 6.34853 45.027 6.34853H48.1072C49.0871 6.34853 49.4823 7.61178 48.6771 8.17025L46.2663 9.84218C45.8994 10.0966 45.7457 10.5634 45.8896 10.9861L46.829 13.7462C47.1399 14.6594 46.1051 15.4399 45.3125 14.8901L42.72 13.0922C42.3773 12.8544 41.923 12.8544 41.5802 13.0922L38.9877 14.8901C38.1951 15.4399 37.1604 14.6594 37.4712 13.7462L38.4107 10.9861C38.5545 10.5634 38.4008 10.0966 38.0339 9.84218L35.6232 8.17025C34.8179 7.61178 35.2131 6.34853 36.1931 6.34853H39.2733C39.7014 6.34853 40.082 6.07602 40.2199 5.67075L41.2035 2.78129Z" fill="#FFA858"/>
<path d="M57.3861 2.92707C57.6854 2.00575 58.9888 2.00575 59.2882 2.92707L60.1753 5.65735C60.3092 6.06937 60.6931 6.34834 61.1263 6.34834H63.9971C64.9658 6.34834 65.3686 7.58794 64.5849 8.15735L62.2624 9.84482C61.9119 10.0994 61.7652 10.5508 61.8991 10.9628L62.7862 13.6932C63.0856 14.6145 62.0311 15.3806 61.2474 14.8112L58.9249 13.1238C58.5744 12.8691 58.0998 12.8691 57.7493 13.1238L55.4269 14.8112C54.6432 15.3806 53.5887 14.6145 53.8881 13.6932L54.7752 10.9628C54.909 10.5508 54.7624 10.0994 54.4119 9.84482L52.0894 8.15734C51.3057 7.58794 51.7085 6.34834 52.6772 6.34834H55.5479C55.9812 6.34834 56.3651 6.06937 56.499 5.65735L57.3861 2.92707Z" fill="#FFA858"/>
<path d="M73.5775 2.78129C73.8851 1.87759 75.1632 1.8776 75.4708 2.78129L76.4543 5.67075C76.5923 6.07602 76.9729 6.34853 77.401 6.34853H80.4812C81.4611 6.34853 81.8563 7.61178 81.0511 8.17025L78.6403 9.84218C78.2735 10.0966 78.1197 10.5634 78.2636 10.9861L79.2031 13.7462C79.5139 14.6594 78.4792 15.4399 77.6865 14.8901L75.094 13.0922C74.7513 12.8544 74.297 12.8544 73.9542 13.0922L71.3618 14.8901C70.5691 15.4399 69.5344 14.6594 69.8452 13.7462L70.7847 10.9861C70.9286 10.5634 70.7748 10.0966 70.4079 9.84218L67.9972 8.17025C67.1919 7.61178 67.5871 6.34853 68.5671 6.34853H71.6473C72.0754 6.34853 72.456 6.07602 72.594 5.67075L73.5775 2.78129Z" fill="#FFA858"/>
</svg>
